<svg version="1.2" xmlns="http://www.w3.org/2000/svg" viewBox="0 0 512 512" width="512" height="512">
	<title>image</title>
	<style>
		.s0 { stroke-width: 40 } 
		.s1 { fill: none;stroke: #000;stroke-width: 50 } 
	</style>
	<path id="Shape 1" class="s1 s0" d="m97.3 106.7c0 0 148.6-185.3 325.1-1.1 101.5 105.9 50.2 212.6 26.1 220.9-24.2 8.4-38.1 6.8-66.9-11.2-28.8-18-58.6-15.9-68.8 9.4-10.2 25.2-5.6 51.8 12.1 74.2 17.6 22.4 17.6 47-21.4 70.4-39 23.3-79.9 15.3-118 1-38-14.2-127.8-53.2-145.8-186-13-96 52-166.4 60.4-180.6"/>
	<ellipse id="Shape 2" class="s1" cx="133" cy="196.5" rx="16" ry="15.5"/>
	<ellipse id="Shape 2 copy" class="s1" cx="135" cy="316.5" rx="16" ry="15.5"/>
	<ellipse id="Shape 2 copy 4" class="s1" cx="225" cy="405.5" rx="16" ry="15.5"/>
	<ellipse id="Shape 2 copy 3" class="s1" cx="407" cy="229.5" rx="16" ry="15.5"/>
	<ellipse id="Shape 2 copy 2" class="s1" cx="225" cy="103.5" rx="16" ry="15.5"/>
</svg>